<svg width="24" height="24" viewBox="0 0 24 24" fill="none" xmlns="http://www.w3.org/2000/svg">
<g clip-path="url(#clip0)">
<path d="M21.3638 16.1547L16.3415 13.7985C16.8402 13.1899 17.2079 12.4825 17.4159 11.7234C18.3727 11.5087 19.0898 10.6528 19.0898 9.63234C19.0898 8.68406 18.4706 7.87734 17.6152 7.59609V5.61516C17.6152 2.51906 15.0961 0 12 0C8.90391 0 6.38484 2.51906 6.38484 5.61516V7.59609C5.52938 7.87734 4.91016 8.68406 4.91016 9.63234C4.91016 10.6528 5.62734 11.5087 6.58406 11.7234C6.79209 12.4825 7.15978 13.1899 7.65848 13.7985L2.63616 16.1547C1.03477 16.906 0 18.5344 0 20.3032V24H24V20.3032C24 18.5344 22.9652 16.906 21.3638 16.1547ZM7.79109 5.61516C7.79109 3.29438 9.67922 1.40625 12 1.40625C14.3208 1.40625 16.2089 3.29438 16.2089 5.61516V6.88781C14.5106 6.24938 13.8131 5.0925 13.7822 5.03953L13.2722 4.11563L12.6169 4.95469C12.6023 4.97344 11.2205 6.6975 7.79109 7.45781V5.61516ZM6.31641 9.63234C6.31641 9.22594 6.64687 8.89547 7.05328 8.89547H7.79109C10.5825 8.33625 12.2742 7.17563 13.1025 6.45C13.6542 7.05891 14.6513 7.90594 16.2089 8.37V8.89547H16.9467C17.3531 8.89547 17.6836 9.22594 17.6836 9.63234C17.6836 10.0388 17.3531 10.3692 16.9467 10.3692H16.2478L16.148 10.9537C15.8025 12.9787 14.0578 14.4483 12 14.4483C9.94219 14.4483 8.1975 12.9787 7.85203 10.9537L7.75219 10.3692H7.05328C6.64687 10.3692 6.31641 10.0388 6.31641 9.63234ZM13.7671 15.5688L12 18.282L10.2329 15.5688C10.7987 15.7563 11.3951 15.8545 12 15.8545C12.6049 15.8545 13.2013 15.7564 13.7671 15.5688ZM6.29686 22.5938C5.77992 22.5938 5.35936 22.1732 5.35936 21.6562C5.35936 21.1393 5.77992 20.7188 6.29686 20.7188C6.8138 20.7188 7.23436 21.1393 7.23436 21.6562C7.23436 22.1732 6.8138 22.5938 6.29686 22.5938ZM1.40625 20.3032C1.40625 19.0772 2.12344 17.9485 3.23344 17.4278L5.59378 16.3205V19.4204C4.64391 19.7197 3.95316 20.6088 3.95316 21.6562C3.95316 21.9895 4.02352 22.3065 4.14942 22.5938H1.40625V20.3032ZM8.44434 22.5938C8.57025 22.3065 8.64061 21.9895 8.64061 21.6562C8.64061 20.6088 7.94986 19.7197 6.99998 19.4204V15.6608L8.23664 15.0806L12 20.8586L15.7634 15.0805L16.9062 15.6167V18.445C15.7768 18.7137 14.934 19.7303 14.934 20.9408V22.5938H8.44434ZM16.3402 22.5938V20.9408C16.3402 20.3014 16.8604 19.7812 17.4998 19.7812H17.7189C18.3583 19.7812 18.8785 20.3015 18.8785 20.9408V22.5938H16.3402ZM22.5938 22.5938H20.2848V20.9408C20.2848 19.7304 19.442 18.7137 18.3125 18.445V16.2764L20.7666 17.4277C21.8766 17.9485 22.5938 19.0772 22.5938 20.3032V22.5938Z" fill="black"/>
</g>
<defs>
<clipPath id="clip0">
<rect width="24" height="24" fill="white"/>
</clipPath>
</defs>
</svg>
