<svg width="25" height="20" viewBox="0 0 25 20" fill="none" xmlns="http://www.w3.org/2000/svg">
<path d="M20.5357 10.596H18.1805C17.86 10.596 17.5497 10.6398 17.2543 10.7203C16.6717 9.57502 15.4822 8.78809 14.1116 8.78809H9.94853C8.57791 8.78809 7.38843 9.57502 6.80582 10.7203C6.51047 10.6398 6.20014 10.596 5.8796 10.596H3.52443C1.58106 10.596 0 12.177 0 14.1204V17.8854C0 19.0514 0.948636 20 2.11466 20H21.9455C23.1115 20 24.0601 19.0514 24.0601 17.8854V14.1204C24.0601 12.177 22.4791 10.596 20.5357 10.596ZM6.4241 12.3126V18.5903H2.11466C1.72599 18.5903 1.40977 18.2741 1.40977 17.8854V14.1205C1.40977 12.9544 2.35841 12.0058 3.52443 12.0058H5.8796C6.07095 12.0058 6.25624 12.0318 6.43265 12.0797C6.42758 12.1568 6.4241 12.2343 6.4241 12.3126ZM16.2263 18.5903H7.83387V12.3126C7.83387 11.1465 8.78251 10.1979 9.94853 10.1979H14.1116C15.2776 10.1979 16.2263 11.1465 16.2263 12.3126V18.5903ZM22.6504 17.8854C22.6504 18.2741 22.3341 18.5903 21.9455 18.5903H17.636V12.3126C17.636 12.2342 17.6326 12.1567 17.6275 12.0796C17.8039 12.0318 17.9892 12.0058 18.1805 12.0058H20.5357C21.7017 12.0058 22.6504 12.9544 22.6504 14.1204V17.8854Z" fill="black"/>
<path d="M4.70193 3.93958C2.975 3.93958 1.57007 5.34451 1.57007 7.07143C1.57002 8.79836 2.975 10.2033 4.70193 10.2033C6.4288 10.2033 7.83378 8.79836 7.83378 7.07143C7.83378 5.34451 6.42885 3.93958 4.70193 3.93958ZM4.70188 8.79352C3.7523 8.79352 2.97979 8.02101 2.97979 7.07143C2.97979 6.12186 3.7523 5.34935 4.70188 5.34935C5.65146 5.34935 6.42396 6.12186 6.42396 7.07143C6.42396 8.02101 5.65146 8.79352 4.70188 8.79352Z" fill="black"/>
<path d="M12.0299 0.0498047C9.7228 0.0498047 7.84583 1.92678 7.84583 4.23392C7.84583 6.54106 9.7228 8.41803 12.0299 8.41803C14.3371 8.41803 16.214 6.54106 16.214 4.23392C16.214 1.92682 14.3371 0.0498047 12.0299 0.0498047ZM12.0299 7.00826C10.5001 7.00826 9.2556 5.76371 9.2556 4.23392C9.2556 2.70417 10.5001 1.45958 12.0299 1.45958C13.5597 1.45958 14.8043 2.70413 14.8043 4.23392C14.8043 5.76371 13.5597 7.00826 12.0299 7.00826Z" fill="black"/>
<path d="M19.3582 3.93958C17.6314 3.93958 16.2264 5.34451 16.2264 7.07143C16.2264 8.79836 17.6314 10.2033 19.3582 10.2033C21.0852 10.2033 22.4901 8.79836 22.4901 7.07143C22.4901 5.34451 21.0852 3.93958 19.3582 3.93958ZM19.3582 8.79352C18.4087 8.79352 17.6362 8.02101 17.6362 7.07143C17.6362 6.12186 18.4087 5.34935 19.3582 5.34935C20.3078 5.34935 21.0803 6.12186 21.0803 7.07143C21.0803 8.02101 20.3078 8.79352 19.3582 8.79352Z" fill="black"/>
</svg>
