<svg width="24" height="24" viewBox="0 0 24 24" fill="none" xmlns="http://www.w3.org/2000/svg">
<path d="M21.89 3.34133C20.6795 2.11766 19.0444 1.44116 17.2857 1.43619C15.4755 1.43014 13.6614 2.11602 12.208 3.33528C10.5549 1.87958 9.05962 1.1698 7.65155 1.1698C5.68505 1.1698 3.86053 1.94432 2.52652 3.33833C1.52386 4.34099 0.836859 5.65742 0.539062 7.14557C0.449906 7.5928 0.739687 8.02766 1.18697 8.11714C1.63369 8.20578 2.06906 7.91652 2.15855 7.46924C2.39194 6.302 2.92284 5.27731 3.70673 4.49319C4.73883 3.41483 6.14001 2.82116 7.65159 2.82116C8.74673 2.82116 10.0733 3.55907 11.5805 4.99986C11.7495 5.16969 11.9716 5.26353 12.2058 5.26381C12.2061 5.26381 12.2067 5.26381 12.2069 5.26381C12.4406 5.26381 12.6627 5.17053 12.8319 5.00127C14.0487 3.78449 15.6643 3.0876 17.2662 3.0876C17.2714 3.0876 17.2763 3.0876 17.2813 3.0876C18.6162 3.09116 19.8041 3.58081 20.7068 4.49319C21.7659 5.59935 22.3491 7.04816 22.3491 8.57347C22.3491 10.0999 21.7527 11.5848 20.7294 12.6312L12.2203 20.8566L5.47308 14.3375C5.14528 14.0208 4.62262 14.0304 4.30556 14.3574C3.98878 14.6855 3.99787 15.2081 4.32567 15.5249L11.6467 22.5983C11.8066 22.753 12.0136 22.8303 12.2203 22.8303C12.427 22.8303 12.634 22.753 12.7942 22.5986L21.8932 13.8022C23.2322 12.4335 24.0001 10.5278 24.0001 8.57342C24.0001 6.62066 23.254 4.76591 21.89 3.34133Z" fill="black"/>
<path d="M22.5138 10.4724H15.8532C15.6259 10.4724 15.409 10.5657 15.2532 10.7309L12.7494 13.3783L9.86559 6.83667C9.74175 6.55566 9.47203 6.36656 9.1657 6.34594C8.86102 6.32639 8.56683 6.47639 8.40633 6.73814L6.11588 10.4724H0.825703C0.369609 10.4724 0 10.842 0 11.2981C0 11.7542 0.369609 12.1238 0.825703 12.1238H6.57773C6.8648 12.1238 7.13152 11.9747 7.28152 11.7297L8.99016 8.94441L11.74 15.1816C11.8515 15.4349 12.0824 15.6151 12.3548 15.6622C12.4016 15.6702 12.4487 15.6743 12.4955 15.6743C12.7206 15.6743 12.9383 15.5824 13.0955 15.4161L16.2089 12.1238H22.5138C22.9699 12.1238 23.3395 11.7541 23.3395 11.2981C23.3394 10.842 22.9698 10.4724 22.5138 10.4724Z" fill="black"/>
</svg>
