<svg width="59" height="59" viewBox="0 0 59 59" fill="none" xmlns="http://www.w3.org/2000/svg">
<path d="M57.1463 21.8486C54.9609 20.0147 51.6908 20.3017 49.8603 22.483L44.9404 28.305V11.4227C44.9404 10.0078 44.352 8.63752 43.3262 7.66321L36.7603 1.42615C35.7925 0.506699 34.5242 0.000244141 33.1892 0.000244141H5.18543C2.32624 0.000244141 0 2.32648 0 5.18568V53.8135C0 56.6727 2.32624 58.999 5.18543 58.999H39.7551C42.6143 58.999 44.9405 56.6727 44.9405 53.8135V44.3688C45.1529 44.1173 57.7458 29.2009 57.7854 29.154C59.6277 26.9585 59.3421 23.6909 57.1463 21.8486ZM34.5696 4.11296C41.4852 10.6822 40.9941 10.2021 41.1237 10.3712H34.5696V4.11296ZM41.4835 53.8135C41.4835 54.7666 40.708 55.5421 39.7549 55.5421H5.18543C4.23233 55.5421 3.45692 54.7666 3.45692 53.8135V5.18568C3.45692 4.23257 4.23233 3.45716 5.18543 3.45716H31.1126V12.0995C31.1126 13.0541 31.8865 13.828 32.8411 13.828H41.4835V32.3956C40.741 33.2742 34.7793 40.3287 34.135 41.0912C33.6202 41.7047 33.2497 42.4407 33.0637 43.2196L31.4574 49.9442C31.3054 50.581 31.5261 51.2491 32.0275 51.67C32.5295 52.0912 33.2259 52.1918 33.826 51.9318L40.1697 49.182C40.6459 48.9755 41.0902 48.6951 41.4835 48.358V53.8135ZM37.3722 42.6164L40.0201 44.8382L39.4312 45.5356C39.2599 45.74 39.0397 45.9042 38.7948 46.0103L35.6231 47.3852L36.4264 44.0229C36.4884 43.7633 36.6118 43.5179 36.7795 43.3181L37.3722 42.6164ZM42.25 42.1966L39.6034 39.976C39.8719 39.6583 48.5569 29.381 49.1575 28.6703L51.7985 30.8864L42.25 42.1966ZM55.1407 26.9279L54.0288 28.245L51.389 26.03L52.5047 24.7097C53.1142 23.9834 54.1998 23.8887 54.9243 24.4967C55.6632 25.1165 55.7446 26.2081 55.1407 26.9279Z" fill="#FFB851"/>
<path d="M25.9273 10.3715H8.64246C7.68785 10.3715 6.91394 11.1454 6.91394 12.1C6.91394 13.0546 7.68785 13.8285 8.64246 13.8285H25.9273C26.8819 13.8285 27.6558 13.0546 27.6558 12.1C27.6558 11.1454 26.8819 10.3715 25.9273 10.3715Z" fill="#FFB851"/>
<path d="M36.2981 20.8577H8.64246C7.68785 20.8577 6.91394 21.6316 6.91394 22.5862C6.91394 23.5408 7.68785 24.3147 8.64246 24.3147H36.2981C37.2527 24.3147 38.0266 23.5408 38.0266 22.5862C38.0266 21.6316 37.2527 20.8577 36.2981 20.8577Z" fill="#FFB851"/>
<path d="M36.2981 31.2285H8.64246C7.68785 31.2285 6.91394 32.0024 6.91394 32.957C6.91394 33.9116 7.68785 34.6855 8.64246 34.6855H36.2981C37.2527 34.6855 38.0266 33.9116 38.0266 32.957C38.0266 32.0023 37.2527 31.2285 36.2981 31.2285Z" fill="#FFB851"/>
<path d="M25.9273 41.5994H8.64246C7.68785 41.5994 6.91394 42.3733 6.91394 43.3279C6.91394 44.2825 7.68785 45.0564 8.64246 45.0564H25.9273C26.8819 45.0564 27.6558 44.2825 27.6558 43.3279C27.6558 42.3733 26.8819 41.5994 25.9273 41.5994Z" fill="#FFB851"/>
</svg>
