<svg width="24" height="24" viewBox="0 0 24 24" fill="none" xmlns="http://www.w3.org/2000/svg">
<path d="M23.246 8.8877C22.357 8.14173 21.0268 8.25845 20.2822 9.14579L18.2808 11.5141V4.64668C18.2808 4.0711 18.0415 3.51371 17.6242 3.11738L14.9534 0.580275C14.5597 0.20626 14.0438 0.000244141 13.5007 0.000244141H2.10933C0.946266 0.000244141 0 0.94651 0 2.10957V21.8904C0 23.0535 0.946266 23.9997 2.10933 23.9997H16.1715C17.3346 23.9997 18.2809 23.0535 18.2809 21.8904V18.0485C18.3673 17.9461 23.4898 11.8785 23.5059 11.8594C24.2553 10.9663 24.1392 9.63713 23.246 8.8877ZM14.0622 1.67321C16.8753 4.34546 16.6755 4.15013 16.7283 4.21895H14.0622V1.67321ZM16.8746 21.8904C16.8746 22.2781 16.5592 22.5935 16.1715 22.5935H2.10933C1.72163 22.5935 1.4062 22.2781 1.4062 21.8904V2.10957C1.4062 1.72187 1.72163 1.40645 2.10933 1.40645H12.656V4.92198C12.656 5.31029 12.9708 5.6251 13.3591 5.6251H16.8746V13.178C16.5726 13.5354 14.1475 16.405 13.8854 16.7152C13.676 16.9648 13.5253 17.2642 13.4497 17.581L12.7962 20.3164C12.7344 20.5755 12.8242 20.8472 13.0282 21.0184C13.2323 21.1898 13.5156 21.2307 13.7597 21.1249L16.3402 20.0064C16.5339 19.9224 16.7146 19.8083 16.8746 19.6712V21.8904ZM15.2023 17.3356L16.2794 18.2394L16.0398 18.5231C15.9701 18.6062 15.8805 18.673 15.7809 18.7162L14.4907 19.2755L14.8175 17.9078C14.8427 17.8022 14.8929 17.7024 14.9611 17.6211L15.2023 17.3356ZM17.1864 17.1649L16.1099 16.2616C16.2191 16.1323 19.752 11.9517 19.9963 11.6627L21.0706 12.5641L17.1864 17.1649ZM22.4301 10.9539L21.9778 11.4896L20.904 10.5886L21.3578 10.0516C21.6058 9.7561 22.0474 9.71757 22.3421 9.96488C22.6426 10.217 22.6758 10.6611 22.4301 10.9539Z" fill="black"/>
<path d="M10.5467 4.2189H3.51562C3.12731 4.2189 2.8125 4.53372 2.8125 4.92203C2.8125 5.31034 3.12731 5.62515 3.51562 5.62515H10.5467C10.935 5.62515 11.2499 5.31034 11.2499 4.92203C11.2499 4.53372 10.935 4.2189 10.5467 4.2189Z" fill="black"/>
<path d="M14.7654 8.48444H3.51562C3.12731 8.48444 2.8125 8.79925 2.8125 9.18756C2.8125 9.57587 3.12731 9.89069 3.51562 9.89069H14.7654C15.1537 9.89069 15.4685 9.57587 15.4685 9.18756C15.4685 8.79925 15.1537 8.48444 14.7654 8.48444Z" fill="black"/>
<path d="M14.7654 12.7031H3.51562C3.12731 12.7031 2.8125 13.0179 2.8125 13.4062C2.8125 13.7946 3.12731 14.1094 3.51562 14.1094H14.7654C15.1537 14.1094 15.4685 13.7946 15.4685 13.4062C15.4685 13.0179 15.1537 12.7031 14.7654 12.7031Z" fill="black"/>
<path d="M10.5467 16.9218H3.51562C3.12731 16.9218 2.8125 17.2366 2.8125 17.6249C2.8125 18.0132 3.12731 18.328 3.51562 18.328H10.5467C10.935 18.328 11.2499 18.0132 11.2499 17.6249C11.2499 17.2366 10.935 16.9218 10.5467 16.9218Z" fill="black"/>
</svg>
