<svg width="40" height="40" viewBox="0 0 40 40" fill="none" xmlns="http://www.w3.org/2000/svg">
<path d="M20 40C31.0457 40 40 31.0457 40 20C40 8.9543 31.0457 0 20 0C8.9543 0 0 8.9543 0 20C0 31.0457 8.9543 40 20 40Z" fill="#E3E3E3"/>
<path d="M25.6213 13.676C25.6213 10.5765 23.0995 8.00781 20 8.00781C16.9005 8.00781 14.3787 10.5764 14.3787 13.676C14.3787 16.7756 16.9005 19.2973 20 19.2973C23.0995 19.2973 25.6213 16.7755 25.6213 13.676Z" fill="white"/>
<path d="M9.45996 31.2895C9.45996 31.6779 9.77426 31.9922 10.1626 31.9922H29.8373C30.2257 31.9922 30.54 31.6779 30.54 31.2895C30.54 25.4774 25.8121 20.7026 20 20.7026C14.1879 20.7026 9.45996 25.4774 9.45996 31.2895Z" fill="white"/>
</svg>
