<svg width="86" height="86" viewBox="0 0 86 86" fill="none" xmlns="http://www.w3.org/2000/svg">
<path d="M43 86C66.7482 86 86 66.7482 86 43C86 19.2518 66.7482 0 43 0C19.2518 0 0 19.2518 0 43C0 66.7482 19.2518 86 43 86Z" fill="#C2C2C2"/>
<path d="M55.0858 29.4034C55.0858 22.7394 49.6639 17.2168 42.9999 17.2168C36.3359 17.2168 30.9141 22.7393 30.9141 29.4034C30.9141 36.0676 36.3359 41.4893 42.9999 41.4893C49.6639 41.4893 55.0858 36.0674 55.0858 29.4034Z" fill="white"/>
<path d="M20.3391 67.2725C20.3391 68.1074 21.0149 68.7832 21.8498 68.7832H64.1504C64.9854 68.7832 65.6611 68.1074 65.6611 67.2725C65.6611 54.7764 55.4961 44.5107 43.0001 44.5107C30.5041 44.5107 20.3391 54.7764 20.3391 67.2725Z" fill="white"/>
</svg>
